# xmcd CD database file
#
# Track frame offsets:
#	150
#	18453
#	42368
#	63586
#	86744
#	104213
#	139476
#	153919
#	167968
#	188993
#	210698
#	228879
#	250300
#	269882
#	295142
#
# Disc length: 4236 seconds
#
# Revision: 0
# Processed by: cddbd v1.5.1PL0 Copyright (c) Steve Scherf et al.
# Submitted via: CDex 1.51
#
DISCID=ec108a0f
DTITLE=Midge Ure and Ultravox - Finest [CD2]
DYEAR=2004
DGENRE=Synthpop
TTITLE0=Overlook
TTITLE1=Passing Strangers (Live)
TTITLE2=Lament
TTITLE3=Heart Of The Country
TTITLE4=White China
TTITLE5=One Small Day (12" Version)
TTITLE6=Building
TTITLE7=Loves Great Adventure
TTITLE8=Same Old Story
TTITLE9=0.All Fall Down (Live)
TTITLE10=No Regrets
TTITLE11=Fade To Grey (Live)
TTITLE12=Call Of The Wild
TTITLE13=The Man Who Sold The World
TTITLE14=Dear God
EXTD=YEAR: 2004
EXTT0=
EXTT1=
EXTT2=
EXTT3=
EXTT4=
EXTT5=
EXTT6=
EXTT7=
EXTT8=
EXTT9=
EXTT10=
EXTT11=
EXTT12=
EXTT13=
EXTT14=
PLAYORDER=
